<?xml version="1.0" standalone="no"?>
<!DOCTYPE svg PUBLIC "-//W3C//DTD SVG 20010904//EN"
 "http://www.w3.org/TR/2001/REC-SVG-20010904/DTD/svg10.dtd">
<svg version="1.0" xmlns="http://www.w3.org/2000/svg"
 width="512" height="512" viewBox="0 0 300.000000 300.000000"
 preserveAspectRatio="xMidYMid meet">
<metadata>
Created by potrace 1.10, written by Peter Selinger 2001-2011
</metadata>
<g transform="translate(0.000000,300.000000) scale(0.100000,-0.100000)"
fill="#000000" stroke="none">
<path d="M1395 2991 c-6 -5 -273 -160 -595 -345 -322 -185 -597 -350 -612
-366 l-28 -30 0 -743 c0 -572 3 -748 13 -767 17 -34 39 -47 522 -325 237 -136
495 -285 574 -331 117 -69 151 -84 185 -84 l41 0 -54 30 c-29 16 -59 34 -65
38 -6 5 -31 21 -56 34 -70 39 -637 365 -714 411 -38 23 -86 50 -106 62 -20 11
-95 54 -168 95 l-131 75 0 755 0 755 131 75 c140 80 153 88 348 200 69 40 267
154 440 253 173 99 329 189 345 199 l30 18 -45 0 c-26 0 -50 -4 -55 -9z"/>
<path d="M1616 2937 c60 -35 233 -134 384 -221 151 -87 318 -184 370 -215 52
-30 111 -65 131 -76 20 -11 95 -54 167 -95 l131 -75 0 -755 0 -755 -131 -75
c-158 -90 -157 -90 -478 -275 -140 -81 -271 -157 -290 -168 -19 -10 -102 -59
-185 -107 -82 -48 -163 -94 -180 -103 l-30 -16 41 -1 c35 0 91 29 415 216 206
119 475 275 599 346 124 71 236 140 250 154 l25 24 2 748 c2 583 0 752 -10
772 -17 34 -41 49 -487 305 -217 125 -475 274 -573 331 -148 86 -186 104 -220
104 -41 0 -40 0 69 -63z"/>
<path d="M1345 2859 c-77 -44 -158 -91 -180 -103 -58 -33 -715 -414 -812 -470
-46 -27 -88 -55 -95 -64 -10 -12 -13 -166 -13 -724 l0 -710 23 -18 c23 -19
195 -120 662 -390 146 -85 334 -193 417 -242 l152 -88 263 151 c145 84 277
160 293 169 17 10 127 74 245 142 118 69 267 156 330 194 l115 70 6 184 c9
263 10 755 2 1028 l-6 233 -44 30 c-24 17 -207 124 -406 239 -199 114 -456
262 -572 329 -115 67 -217 121 -225 121 -8 0 -78 -36 -155 -81z m380 -86 c113
-65 215 -126 227 -136 l23 -17 -28 10 c-43 15 -72 12 -101 -11 -33 -26 -35
-77 -5 -125 11 -19 19 -34 16 -34 -4 0 -67 73 -177 205 -65 77 -146 156 -166
161 -40 10 -80 -26 -225 -198 -77 -92 -142 -168 -145 -168 -2 0 5 18 16 40 27
52 25 86 -5 115 -17 18 -35 25 -62 25 l-37 0 24 17 c72 50 398 232 418 233 12
0 115 -53 227 -117z m-164 -30 c40 -43 198 -231 259 -309 14 -17 70 -87 126
-155 176 -217 188 -241 142 -273 -20 -14 -92 -16 -588 -16 -496 0 -568 2 -588
16 -46 32 -33 57 142 273 56 68 115 141 131 161 198 247 291 350 315 350 9 0
37 -21 61 -47z m-416 -164 c7 -22 -34 -90 -105 -175 -19 -23 -80 -97 -135
-165 -147 -181 -174 -209 -203 -209 -36 0 -179 79 -230 126 -64 61 -75 51 233
232 372 220 424 242 440 191z m895 -47 c188 -103 213 -118 365 -208 77 -46
146 -93 154 -106 13 -21 11 -25 -31 -63 -53 -47 -195 -125 -230 -125 -27 0
-58 30 -167 163 -198 240 -281 352 -281 377 0 49 48 39 190 -38z m-1615 -279
c-32 -48 -32 -61 5 -111 33 -46 33 -46 -6 -32 -39 15 -74 -2 -107 -52 l-27
-42 0 85 c0 53 5 91 13 101 9 13 133 87 145 88 1 0 -9 -17 -23 -37z m2196 1
c89 -53 89 -54 89 -147 l0 -82 -24 36 c-34 50 -73 65 -119 45 l-36 -14 35 45
c41 53 42 69 9 117 -13 20 -22 36 -19 36 4 0 33 -16 65 -36z m-1752 -152 c-18
-35 -19 -47 -10 -74 6 -18 21 -42 32 -54 l20 -21 -35 -21 c-19 -11 -42 -35
-51 -52 -15 -29 -15 -35 0 -81 9 -27 21 -51 26 -54 5 -4 9 -10 9 -16 0 -5 -18
9 -40 31 -60 60 -100 55 -156 -18 -18 -25 -34 -43 -34 -40 0 2 13 44 30 93 16
49 30 97 30 106 0 10 -15 37 -34 61 l-33 44 37 -9 c56 -15 82 -3 156 76 38 41
70 73 71 72 1 0 -7 -20 -18 -43z m1429 -112 c17 0 42 4 56 10 24 9 24 8 -9
-36 -19 -25 -35 -53 -35 -62 0 -9 11 -52 24 -96 l25 -79 -38 37 c-64 62 -99
49 -189 -69 -14 -18 -6 4 20 58 l43 88 -20 37 c-11 20 -33 43 -50 52 -16 8
-32 16 -34 17 -1 1 12 20 30 43 l33 41 -15 42 c-9 23 -19 49 -23 58 -4 9 28
-19 72 -62 64 -65 84 -79 110 -79z m-1783 27 c83 -47 135 -94 135 -120 0 -41
-208 -578 -236 -608 -22 -24 -51 -24 -64 0 -6 13 -10 151 -10 383 0 360 0 363
22 390 26 30 20 32 153 -45z m2145 -350 c0 -277 -3 -376 -12 -385 -17 -17 -42
-15 -61 6 -28 30 -237 568 -237 609 0 30 55 76 163 136 l99 54 24 -24 24 -24
0 -372z m-524 208 c20 -22 22 -29 13 -48 -29 -55 -534 -937 -562 -981 -58 -92
-86 -105 -129 -58 -33 36 -189 299 -448 757 -9 17 -49 87 -89 156 -39 70 -71
132 -71 139 0 6 9 24 19 38 l19 27 611 -2 612 -1 25 -27z m-1356 -127 c39 -42
580 -984 580 -1010 0 -8 -9 -23 -20 -33 -16 -15 -30 -16 -97 -10 -43 4 -112
13 -153 21 -42 8 -94 16 -115 18 -114 12 -481 77 -553 98 -58 17 -58 32 2 195
86 236 241 634 264 680 20 38 44 62 64 63 4 0 17 -10 28 -22z m1508 0 c18 -20
42 -76 139 -328 14 -36 36 -94 50 -130 97 -247 152 -415 142 -433 -16 -27
-120 -50 -514 -112 -55 -9 -138 -22 -185 -30 -47 -8 -121 -17 -166 -21 -68 -6
-83 -4 -97 10 -9 10 -17 25 -17 34 0 17 303 553 472 837 92 153 123 195 143
195 6 0 21 -10 33 -22z m-1983 -432 c7 -44 44 -86 76 -86 14 0 40 18 66 47
l44 47 -36 -100 c-135 -369 -133 -356 -81 -402 37 -33 96 -49 271 -77 141 -22
143 -23 109 -45 -16 -9 -37 -27 -48 -38 -16 -19 -17 -25 -6 -52 7 -17 29 -44
49 -60 19 -17 33 -30 30 -30 -21 0 -476 268 -482 285 -9 23 -20 532 -12 552 8
20 10 16 20 -41z m2401 -501 c-5 -18 -195 -136 -439 -274 -53 -29 -54 -27 -7
17 54 52 55 88 3 131 -43 35 -59 28 152 67 153 27 198 44 229 87 25 34 21 51
-63 276 -32 86 -61 170 -65 186 l-8 30 24 -34 c69 -102 148 -87 166 31 4 24 8
-78 10 -227 1 -148 0 -279 -2 -290z m-1202 -95 c18 0 40 14 72 48 44 45 45 46
38 17 -17 -63 -5 -92 50 -126 l29 -18 -59 -17 c-66 -19 -111 -58 -120 -103 -4
-17 -10 -31 -14 -31 -4 0 -10 14 -14 31 -8 42 -55 85 -107 99 -75 19 -75 19
-42 40 18 10 37 29 43 41 12 21 9 76 -5 111 -4 9 18 -8 48 -38 38 -38 62 -54
81 -54z m-579 -65 c61 -8 135 -20 165 -25 30 -5 100 -17 155 -25 209 -34 208
-33 208 -203 0 -135 -4 -154 -38 -172 -23 -12 -37 -6 -222 100 -297 170 -458
272 -466 294 -7 18 51 58 73 51 8 -2 65 -11 125 -20z m1330 1 c46 -34 -8 -74
-427 -314 -205 -117 -220 -124 -243 -112 -34 18 -38 38 -37 180 1 120 2 126
26 147 14 11 44 24 68 28 24 3 77 12 118 20 41 7 122 21 180 29 58 9 128 20
155 25 78 14 139 12 160 -3z m-745 -382 c0 -27 70 -94 99 -94 l26 0 -30 -21
c-16 -11 -47 -29 -68 -40 -35 -18 -39 -19 -70 -3 -17 9 -45 26 -61 37 l-28 20
29 12 c36 15 83 70 83 96 0 11 5 17 10 14 6 -3 10 -13 10 -21z"/>
<path d="M1403 2638 c-98 -123 -271 -336 -400 -495 -46 -56 -83 -104 -83 -107
0 -8 1056 -7 1113 0 l46 7 -142 174 c-78 97 -206 255 -284 352 -79 97 -146
177 -151 179 -4 1 -49 -48 -99 -110z m230 -109 c273 -333 357 -441 352 -450
-8 -12 -962 -12 -970 0 -5 9 37 64 279 361 176 217 198 241 210 237 6 -2 64
-68 129 -148z"/>
<path d="M1064 2546 c-27 -18 -157 -95 -289 -171 -132 -76 -252 -145 -267
-154 -16 -9 -28 -18 -28 -21 0 -6 212 -130 222 -130 4 0 65 71 135 158 70 86
163 199 206 250 44 51 77 95 75 97 -2 3 -26 -10 -54 -29z m-148 -151 c-3 -9
-51 -72 -107 -140 -73 -89 -108 -125 -123 -125 -29 0 -118 58 -113 73 3 9 332
207 346 207 2 0 0 -7 -3 -15z"/>
<path d="M1890 2561 c0 -6 5 -13 10 -16 9 -6 157 -184 328 -397 35 -43 68 -78
73 -78 12 0 219 123 219 130 0 3 -12 12 -28 21 -15 9 -135 78 -267 154 -132
76 -259 151 -282 167 -45 30 -53 33 -53 19z m420 -282 c63 -36 116 -73 118
-80 1 -8 -23 -28 -57 -47 l-60 -32 -24 22 c-36 33 -207 248 -207 259 0 11 24
-2 230 -122z"/>
<path d="M381 1673 c0 -321 2 -364 14 -338 8 17 42 104 75 195 34 91 77 203
95 250 18 47 36 95 39 107 6 19 -6 29 -105 87 -61 36 -113 66 -115 66 -2 0 -4
-165 -3 -367z m121 251 c50 -30 58 -39 52 -57 -17 -58 -114 -301 -123 -310 -8
-8 -11 49 -11 196 0 146 3 207 11 207 6 0 38 -16 71 -36z"/>
<path d="M2503 1977 c-56 -34 -104 -65 -108 -68 -3 -4 5 -35 18 -70 79 -213
180 -478 192 -504 12 -26 14 16 14 338 1 202 -2 367 -6 367 -5 -1 -54 -29
-110 -63z m77 -223 c0 -120 -4 -203 -9 -200 -12 8 -120 283 -123 315 -2 20 7
30 52 57 30 19 61 34 68 34 9 0 12 -48 12 -206z"/>
<path d="M1078 1853 c-104 -2 -188 -7 -188 -11 0 -4 4 -12 9 -17 5 -6 59 -98
121 -205 62 -107 121 -208 130 -225 83 -142 283 -493 310 -542 19 -35 37 -63
40 -63 3 0 21 28 40 63 50 91 261 460 270 472 4 6 18 30 32 55 49 89 251 435
261 448 5 7 8 14 6 16 -6 6 -819 13 -1031 9z m779 -43 c126 0 173 -3 173 -12
0 -6 -39 -79 -87 -162 -48 -83 -164 -286 -259 -451 -95 -165 -178 -300 -184
-300 -7 0 -89 135 -184 300 -94 165 -211 367 -259 449 -48 82 -87 155 -87 162
0 11 46 14 223 17 122 2 282 2 356 0 74 -1 212 -3 308 -3z"/>
<path d="M734 1714 c-4 -10 -22 -58 -40 -106 -19 -47 -40 -104 -47 -125 -8
-21 -62 -166 -121 -321 -59 -156 -106 -285 -104 -287 2 -1 64 -12 138 -24 74
-11 173 -28 220 -36 47 -8 130 -21 185 -30 147 -23 275 -45 318 -55 20 -4 37
-5 37 -1 0 5 -215 384 -314 552 -12 20 -72 125 -135 235 -63 109 -118 203
-122 208 -5 5 -11 1 -15 -10z m255 -481 c252 -437 254 -440 243 -446 -4 -3
-173 23 -377 57 l-370 61 2 26 c1 27 240 666 256 687 6 7 13 9 17 5 4 -4 107
-180 229 -390z"/>
<path d="M2104 1472 c-455 -791 -439 -762 -418 -750 5 4 68 16 139 27 135 22
244 41 393 66 48 8 148 25 222 36 74 12 136 23 138 24 1 1 -45 130 -104 286
-59 156 -113 300 -120 319 -7 19 -29 75 -48 125 -20 49 -36 95 -36 102 0 42
-34 -6 -166 -235z m236 -68 c44 -115 101 -263 126 -328 25 -66 46 -131 47
-145 l2 -26 -370 -62 c-203 -34 -373 -58 -377 -54 -6 5 329 602 462 825 7 11
15 15 21 9 5 -5 45 -104 89 -219z"/>
<path d="M760 637 c0 -3 46 -31 103 -63 204 -115 512 -297 530 -312 16 -14 17
-10 17 74 0 49 -3 112 -6 141 l-7 52 -51 10 c-53 9 -134 23 -396 66 -85 14
-163 28 -172 31 -10 3 -18 3 -18 1z m440 -115 c146 -26 155 -28 161 -52 12
-42 10 -130 -2 -130 -13 0 -301 164 -338 192 l-24 18 24 -1 c13 0 94 -12 179
-27z"/>
<path d="M2219 636 c-5 -5 -224 -46 -274 -51 -16 -2 -59 -8 -95 -15 -36 -6
-105 -18 -153 -25 -49 -7 -90 -15 -91 -17 -4 -4 -15 -268 -11 -268 1 0 70 40
151 88 82 49 227 132 322 186 94 54 172 100 172 102 0 5 -16 5 -21 0z m-239
-100 c-15 -15 -299 -182 -326 -193 -13 -5 -14 7 -12 73 l3 79 105 18 c130 22
210 34 230 36 13 1 13 -1 0 -13z"/>
</g>
</svg>
