<?xml version="1.0" standalone="no"?>
<!DOCTYPE svg PUBLIC "-//W3C//DTD SVG 20010904//EN"
 "http://www.w3.org/TR/2001/REC-SVG-20010904/DTD/svg10.dtd">
<svg version="1.0" xmlns="http://www.w3.org/2000/svg"
 width="300.000000pt" height="300.000000pt" viewBox="0 0 300.000000 300.000000"
 preserveAspectRatio="xMidYMid meet">
<metadata>
Created by potrace 1.10, written by Peter Selinger 2001-2011
</metadata>
<g transform="translate(0.000000,300.000000) scale(0.100000,-0.100000)"
fill="#000000" stroke="none">
<path d="M1208 2830 c-161 -92 -453 -260 -648 -373 l-355 -205 0 -752 0 -752
160 -92 c88 -51 379 -219 648 -374 l487 -281 98 56 c53 31 273 157 487 281
215 124 462 267 550 318 l160 92 0 752 0 752 -160 92 c-88 51 -353 204 -590
341 -236 137 -456 263 -487 281 l-57 32 -293 -168z m472 19 c221 -128 653
-377 875 -504 94 -54 178 -106 188 -117 16 -19 17 -68 17 -728 0 -660 -1 -709
-17 -728 -10 -11 -286 -174 -613 -362 -327 -189 -603 -348 -612 -354 -13 -8
-23 -8 -38 2 -11 6 -286 166 -612 353 -326 188 -601 349 -610 357 -17 14 -18
62 -18 732 0 670 1 718 18 732 9 8 199 120 422 248 223 129 497 287 610 352
113 65 207 118 210 118 3 0 84 -45 180 -101z"/>
<path d="M1466 2769 c-22 -17 -491 -587 -555 -675 -28 -38 -24 -74 9 -91 36
-18 1124 -18 1160 0 46 23 38 56 -36 149 -426 528 -520 638 -544 638 -4 0 -19
-9 -34 -21z m99 -87 c33 -42 159 -197 280 -345 121 -148 226 -278 234 -288 13
-19 0 -19 -579 -19 l-592 0 19 24 c10 14 133 166 273 338 141 172 264 325 275
340 11 15 22 27 25 27 3 0 32 -35 65 -77z"/>
<path d="M1036 2574 c-108 -56 -552 -317 -573 -337 -47 -42 -24 -71 125 -156
92 -53 110 -58 142 -41 21 11 384 456 405 497 17 33 4 63 -28 63 -12 -1 -44
-12 -71 -26z m27 -76 c-38 -46 -129 -157 -203 -248 -73 -91 -138 -171 -145
-178 -9 -10 -24 -5 -76 26 -35 21 -88 52 -116 68 -29 16 -53 31 -53 34 0 3
132 81 294 173 161 92 308 178 327 191 19 13 36 22 38 20 2 -2 -28 -41 -66
-86z"/>
<path d="M1861 2586 c-11 -13 -10 -21 5 -50 25 -47 381 -484 404 -496 32 -17
50 -12 142 41 149 85 172 114 126 156 -37 35 -600 355 -633 360 -21 3 -35 0
-44 -11z m467 -266 c111 -63 201 -117 202 -120 0 -4 -202 -125 -230 -138 -3
-1 -39 39 -80 90 -41 51 -137 168 -212 261 -76 92 -138 169 -138 171 0 2 58
-31 128 -73 71 -42 219 -128 330 -191z"/>
<path d="M362 2057 c-22 -23 -22 -27 -22 -388 1 -380 3 -399 44 -399 21 0 49
45 87 145 95 242 179 471 179 485 0 22 -43 60 -115 102 -59 35 -141 78 -148
78 -2 0 -13 -10 -25 -23z m124 -72 c60 -35 114 -68 121 -72 8 -6 1 -33 -24
-98 -20 -49 -73 -188 -118 -308 -45 -120 -84 -220 -86 -222 -2 -2 -4 170 -4
381 0 211 0 384 1 384 0 0 49 -29 110 -65z"/>
<path d="M2520 2033 c-104 -54 -170 -106 -170 -133 0 -28 209 -570 232 -602
23 -33 53 -36 68 -9 6 13 10 152 10 384 l0 364 -24 22 -23 22 -93 -48z m105
-367 c0 -211 -2 -383 -4 -381 -2 2 -41 102 -86 222 -45 120 -98 259 -118 308
-25 65 -32 92 -24 98 23 15 222 135 227 136 3 0 5 -172 5 -383z"/>
<path d="M871 1876 c-16 -17 -21 -31 -16 -46 4 -12 80 -149 169 -304 89 -154
218 -378 286 -496 126 -220 161 -270 190 -270 21 0 50 31 88 95 92 155 524
909 543 948 l23 47 -24 25 -23 25 -607 0 -607 0 -22 -24z m1249 -21 c0 -3 -11
-22 -24 -43 -34 -53 -550 -950 -572 -994 -11 -21 -21 -38 -24 -38 -3 0 -13 17
-24 38 -22 44 -538 941 -572 994 -13 21 -24 40 -24 43 0 3 279 5 620 5 341 0
620 -2 620 -5z"/>
<path d="M717 1748 c-13 -13 -44 -78 -70 -143 -153 -398 -250 -655 -260 -693
-21 -78 -28 -76 455 -154 233 -37 438 -68 455 -68 23 0 37 7 48 24 15 23 15
28 -11 77 -30 59 -493 864 -530 921 -35 55 -59 64 -87 36z m201 -308 c93 -162
224 -389 291 -504 66 -115 121 -211 121 -214 0 -2 -12 -1 -26 2 -14 4 -219 38
-456 76 -237 38 -432 70 -434 72 -1 2 69 192 157 423 88 231 162 426 165 434
2 8 6 12 9 10 2 -3 80 -137 173 -299z"/>
<path d="M2222 1743 c-15 -15 -109 -170 -209 -343 -99 -173 -221 -385 -271
-471 -49 -86 -93 -166 -97 -178 -10 -33 19 -61 64 -61 20 1 224 31 453 68 456
74 465 77 455 137 -5 31 -288 778 -313 827 -8 15 -23 32 -34 38 -17 9 -25 6
-48 -17z m204 -440 c89 -235 161 -429 159 -431 -1 -2 -197 -34 -435 -73 -238
-38 -443 -72 -456 -75 -13 -3 -24 -4 -24 -2 0 2 104 184 231 404 127 219 258
447 291 507 34 59 63 105 66 103 3 -3 78 -198 168 -433z"/>
<path d="M749 651 l-24 -19 29 -31 c25 -26 495 -306 615 -366 32 -16 34 -16
57 6 23 22 24 28 24 154 0 156 -5 169 -83 184 -78 16 -554 91 -576 91 -10 0
-29 -9 -42 -19z m346 -66 c160 -26 296 -49 303 -51 9 -2 12 -40 12 -143 l0
-140 -67 41 c-38 23 -185 108 -328 190 -142 82 -262 152 -265 155 -3 3 9 3 25
0 17 -3 161 -27 320 -52z"/>
<path d="M1906 625 c-317 -51 -311 -50 -336 -75 -18 -18 -20 -34 -20 -153 0
-128 1 -134 24 -156 l24 -22 43 22 c126 63 579 332 603 358 29 30 29 31 11 51
-24 27 -33 26 -349 -25z m343 10 c-3 -2 -124 -72 -269 -156 -146 -83 -293
-169 -328 -190 l-63 -38 3 141 3 141 296 47 c163 26 302 50 310 53 17 7 54 9
48 2z"/>
</g>
</svg>
